<?xml version="1.0" encoding="UTF-8" standalone="no"?>
<svg
   width="1024"
   height="1024"
   viewBox="0 0 1024 1024"
   version="1.1"
   id="svg21"
   sodipodi:docname="logo.svg"
   inkscape:version="1.4.2 (1:1.4.2+202505120738+ebf0e940d0)"
   inkscape:export-filename="logo.png"
   inkscape:export-xdpi="48"
   inkscape:export-ydpi="48"
   xmlns:inkscape="http://www.inkscape.org/namespaces/inkscape"
   xmlns:sodipodi="http://sodipodi.sourceforge.net/DTD/sodipodi-0.dtd"
   xmlns="http://www.w3.org/2000/svg"
   xmlns:svg="http://www.w3.org/2000/svg">
  <defs
     id="defs21" />
  <sodipodi:namedview
     id="namedview21"
     pagecolor="#ffffff"
     bordercolor="#666666"
     borderopacity="1.0"
     inkscape:showpageshadow="2"
     inkscape:pageopacity="0.0"
     inkscape:pagecheckerboard="0"
     inkscape:deskcolor="#d1d1d1"
     inkscape:zoom="0.78808594"
     inkscape:cx="512"
     inkscape:cy="512"
     inkscape:window-width="1860"
     inkscape:window-height="1016"
     inkscape:window-x="60"
     inkscape:window-y="27"
     inkscape:window-maximized="1"
     inkscape:current-layer="svg21" />
  <g
     id="g21"
     transform="translate(-13.859131,-9.6433353)">
    <path
       fill="#555208"
       d="M 89.866409,199.2441 C 91.352551,162.26489 88.469457,125.06745 90.475547,88.057684 92.926821,42.835072 128.53664,21.331972 171.1462,23.803712 c -1.86043,6.390885 -12.45552,12.3445 -17.03837,17.282508 -22.73965,24.503776 -20.03359,47.37055 -19.98994,79.16105 l 0.0164,78.99683 c -14.75512,0.0491 -29.51571,0.19641 -44.267839,0 z"
       id="path1"
       style="stroke-width:2.72788" />
    <path
       fill="#606c38"
       d="m 171.1462,23.803712 c 85.21913,-0.98095 170.55556,0.01303 255.79106,0.01227 l 514.0727,-0.01227 v 84.165358 l 58.03301,-0.0464 c 7.61353,-0.03 16.73833,-1.37212 24.11183,0.0464 -26.2832,1.16208 -55.4825,-0.002 -82.14484,0 v 218.60725 c -0.54558,2.74971 -0.63287,79.6297 0,84.3544 -0.55377,9.75491 -0.0736,19.64078 -0.0272,29.41478 l 0.0191,464.51247 c -0.002,10.66876 -0.4119,21.51757 0.008,32.1645 v 82.70403 c -37.62298,0.4255 -75.29236,0 -112.9208,0 H 171.1462 c -0.73379,-7.098 -28.7219,-19.1443 -34.7478,-47.88257 -4.17912,-19.92176 -0.69288,-120.3161 -2.26414,-123.42863 17.70942,0.43374 34.78599,2.5424 48.78823,-10.60328 15.54894,-14.59691 15.819,-40.69731 1.25755,-56.07441 -13.5876,-14.34869 -31.9981,-12.74468 -50.04578,-13.15386 0.40098,-12.46098 0.03,-25.03109 0.0218,-37.50297 l -0.0218,-73.66654 2.5342,0.0354 c 17.58394,0.24825 32.97468,0.97932 46.40132,-12.31094 15.45348,-15.29798 14.6351,-41.60843 -0.70652,-56.65545 -13.71035,-13.44847 -30.53049,-11.66443 -48.229,-11.52259 l 0.0245,-76.88271 c 0.002,-7.32983 1.23574,-23.35614 -0.41191,-29.84033 l -3.0525,-0.56467 c 17.41209,-0.0983 37.69119,1.69946 51.42882,-11.11614 16.33731,-15.23796 15.68534,-41.73118 0.29461,-57.42471 -13.08021,-13.33663 -31.25065,-11.14887 -48.28357,-11.02338 V 279.70307 c -12.57282,-0.06 -25.2793,0.63013 -37.830043,0 24.354293,-0.26461 67.195723,5.4694 84.187723,-11.17342 15.68535,-15.36891 15.88175,-43.07331 0.0954,-58.42858 -12.79378,-12.44188 -30.06129,-10.83789 -46.45316,-10.85698 l -0.0164,-78.99683 c -0.0436,-31.790501 -2.7497,-54.657275 19.98994,-79.161051 4.58285,-4.938008 15.17795,-10.891623 17.03837,-17.282508 z m 98.56941,612.281198 h 62.87775 l 410.3012,-0.0218 c 14.92155,-0.0164 30.45957,-1.05298 45.28836,0.0218 H 855.6708 V 112.00906 c -32.26544,-0.97658 -64.83365,-0.0164 -97.14272,-0.0137 l -391.8307,0.0164 c -32.24088,0 -64.77636,-0.97113 -96.98177,-0.002 z m 104.39343,159.25666 c -16.2882,2.73606 -25.09927,23.88809 -10.12045,34.62504 9.21479,6.60695 43.83438,3.41532 55.3106,3.41532 l 328.11822,-0.0136 c 21.92401,-5.46948 26.34317,-36.25364 -11.8254,-37.81128 -15.46165,-0.63287 -31.06243,-0.22641 -46.53771,-0.22914 z m 139.06214,81.85565 -51.37427,-0.03 c -9.93769,0 -21.63213,-1.11843 -31.31339,1.00932 -19.17976,4.21731 -20.00631,33.08106 0.2155,36.17448 5.5567,0.84838 11.65898,0.40373 17.28934,0.39827 l 134.56384,-0.0736 52.0726,0.0437 c 14.91608,0.002 43.38429,4.37553 43.60524,-18.10224 0.2728,-27.94991 -45.40292,-19.45255 -64.31262,-19.45255 z"
       id="path2"
       style="stroke-width:2.72788" />
    <path
       fill="#555208"
       d="m 941.00996,107.96907 c 26.66234,-0.002 55.86164,1.16208 82.14484,0 v 218.60725 h -82.14484 z"
       id="path3"
       style="stroke-width:2.72788" />
    <path
       fill="#fefae0"
       d="m 683.4785,310.42997 c 5.78311,-40.9592 6.32597,-120.58888 -54.54134,-115.85056 -75.62789,-81.52829 -200.7178,-23.18429 -204.17401,86.253 -0.31372,9.87768 0.57012,19.72534 0.55375,29.59756 -29.88671,30.37501 -19.91084,61.81661 24.45004,62.01302 11.08612,25.6694 22.10405,41.46386 43.94622,58.59224 4.34825,3.40985 10.99338,6.79243 13.17842,12.07635 1.27393,14.68694 -14.59147,16.65101 -25.7676,21.02107 -49.21105,18.15409 -117.28816,40.46274 -140.05781,89.24005 -12.06817,25.84671 -8.23276,54.99143 -8.47281,82.71221 H 269.71561 V 112.00906 c 32.20541,-0.9684 64.74089,0.002 96.98177,0.002 l 391.8307,-0.0164 c 32.30907,-0.002 64.87728,-0.96295 97.14272,0.0137 v 524.07585 h -67.48788 c 0.0955,-40.57184 3.55169,-78.93408 -25.79216,-110.68121 -22.38503,-24.22363 -90.35302,-47.56614 -124.4734,-61.27104 -10.3605,-4.98931 -28.68098,-5.94678 -26.13042,-21.02109 4.63469,-5.80767 12.66013,-9.68126 18.61236,-14.0786 18.73512,-13.8413 30.88512,-35.26064 39.06332,-56.58999 3.49443,0.0763 6.96157,0.11179 10.45598,0 37.33384,-0.99021 45.50386,-52.88278 3.5599,-62.01301 z"
       id="path4"
       style="stroke-width:2.72788" />
    <path
       fill="#5b2a06"
       d="m 443.62919,303.1547 c -1.10752,10.81606 -9.8913,6.32596 -18.31229,7.27527 0.0164,-9.87222 -0.86747,-19.71988 -0.55375,-29.59756 3.45621,-109.43729 128.54612,-167.78129 204.17401,-86.253 60.86731,-4.73832 60.32445,74.89136 54.54134,115.85056 -2.40327,-0.12276 -4.72743,-0.15003 -7.13069,0 -14.75514,-43.70345 -38.76325,-60.53996 -87.12048,-55.53974 -30.41591,45.03192 -98.70306,43.56706 -145.59814,34.55412 z"
       id="path5"
       style="stroke-width:2.72788" />
    <path
       fill="#dda15e"
       d="m 89.866409,279.70308 c -18.055881,-0.73654 -34.997139,2.63786 -49.292074,-11.5226 -15.613314,-15.4671 -17.206953,-42.6614 -0.905928,-58.24852 14.082429,-13.46485 32.319711,-11.0534 50.198002,-10.68786 14.752131,0.19641 29.512711,0.0491 44.267851,0 16.39185,0.0191 33.65937,-1.5849 46.45314,10.85698 15.78628,15.35527 15.58988,43.05967 -0.0954,58.42858 -16.99198,16.64282 -59.83342,10.90881 -84.18772,11.17342 z"
       id="path6"
       style="stroke-width:2.72788" />
    <path
       fill="#f5cf87"
       d="m 443.62919,303.1547 v -13.71035 c 46.89508,9.01294 115.18223,10.4778 145.59814,-34.55412 48.35723,-5.00022 72.36534,11.83629 87.12048,55.53974 1.3012,21.31297 -1.27393,41.48022 -6.88519,62.01302 3.47806,-0.03 6.98067,-0.15004 10.45598,0 -3.49441,0.11178 -6.96155,0.0763 -10.45598,0 -8.1782,21.32934 -20.3282,42.74869 -39.06332,56.58998 -5.95223,4.39734 -13.97767,8.27093 -18.61236,14.07861 -30.35317,10.65239 -58.50222,20.55734 -90.79765,4.81472 -3.75902,-1.83041 -9.65944,-6.03681 -13.70489,-6.09955 l -0.39282,1.28483 c -2.18504,-5.28392 -8.83017,-8.6665 -13.17842,-12.07635 -21.84217,-17.12838 -32.8601,-32.92284 -43.94622,-58.59224 -5.53488,-25.33115 -6.847,-43.69254 -6.13775,-69.28829 z"
       id="path7"
       style="stroke-width:2.72788" />
    <path
       fill="#555208"
       d="m 89.866409,279.70308 h 6.437798 c 12.550743,0.63013 25.257223,-0.06 37.830053,0 V 390.10877 H 89.866409 Z"
       id="path8"
       style="stroke-width:2.72788" />
    <path
       fill="#dda15e"
       d="m 425.3169,310.42997 c 8.42099,-0.94931 17.20477,3.54079 18.31229,-7.27527 -0.70925,25.59575 0.60287,43.95714 6.13775,69.28829 -44.36088,-0.19641 -54.33675,-31.63801 -24.45004,-62.01302 z"
       id="path9"
       style="stroke-width:2.72788" />
    <path
       fill="#dda15e"
       d="m 676.34781,310.42997 c 2.40326,-0.15003 4.72742,-0.12276 7.13069,0 41.94396,9.13024 33.77394,61.0228 -3.5599,62.01302 -3.47531,-0.15004 -6.97792,-0.03 -10.45598,0 5.61126,-20.5328 8.18639,-40.70005 6.88519,-62.01302 z"
       id="path10"
       style="stroke-width:2.72788" />
    <path
       fill="#dda15e"
       d="M 89.866409,469.673 C 71.637856,468.09355 53.805404,473.9476 39.242037,458.89785 23.586164,442.71875 23.7171,415.25442 40.64799,400.15011 54.870638,387.46272 72.19462,389.15401 89.866409,390.10877 h 44.267851 c 17.03291,-0.12549 35.20335,-2.31325 48.28356,11.02339 15.39073,15.69352 16.0427,42.18674 -0.29461,57.42471 -13.73763,12.8156 -34.01673,11.01793 -51.42882,11.11613 z"
       id="path11"
       style="stroke-width:2.72788" />
    <path
       fill="#f5cf87"
       d="m 941.00996,410.93072 c 0.90564,10.83516 17.87855,5.78856 29.573,5.74492 l 52.57184,-0.0137 -0.011,472.79432 c 0.014,15.32799 1.9123,32.4591 0.011,47.56614 h -82.14484 c -0.4201,-10.64694 -0.0114,-21.49574 -0.008,-32.1645 l -0.0191,-464.51247 c -0.0464,-9.77401 -0.52648,-19.65987 0.0272,-29.41479 z"
       id="path12"
       style="stroke-width:2.72788" />
    <path
       fill="#dda15e"
       d="m 506.89158,443.11158 0.39282,-1.28483 c 4.04545,0.0626 9.94587,4.26914 13.70489,6.09955 32.29543,15.74262 60.44448,5.83767 90.79765,-4.81472 -2.55056,15.0743 15.76992,16.03178 26.13042,21.02107 2.08411,65.31922 -89.51282,104.84628 -136.90438,49.3911 -10.7806,-12.61374 -21.1902,-32.31725 -19.889,-49.3911 11.17613,-4.37006 27.04153,-6.33413 25.7676,-21.02107 z"
       id="path13"
       style="stroke-width:2.72788" />
    <path
       fill="#8d4d04"
       d="m 332.59336,636.08491 c 0.24005,-27.72078 -3.59536,-56.8655 8.47281,-82.71221 22.76965,-48.77731 90.84676,-71.08596 140.05781,-89.24005 -1.3012,17.07385 9.1084,36.77736 19.889,49.3911 47.39156,55.45518 138.98849,15.92812 136.90438,-49.3911 34.12038,13.70491 102.08837,37.04742 124.4734,61.27104 29.34385,31.74714 25.88763,70.10938 25.79216,110.68122 -14.82879,-1.0748 -30.36681,-0.0382 -45.28836,-0.0218 z"
       id="path14"
       style="stroke-width:2.72788" />
    <path
       fill="#555208"
       d="m 89.866409,469.673 h 40.827981 l 3.0525,0.56467 c 1.64765,6.48419 0.41464,22.51051 0.41192,29.84034 l -0.0245,76.88271 H 89.86642 Z"
       id="path15"
       style="stroke-width:2.72788" />
    <path
       fill="#dda15e"
       d="m 89.866409,576.96072 h 44.267851 c 17.69851,-0.14185 34.51865,-1.92589 48.229,11.52258 15.34162,15.04702 16.16,41.35748 0.70652,56.65545 -13.42664,13.29027 -28.81738,12.55919 -46.40132,12.31094 l -2.5342,-0.0354 H 89.866409 c -18.039237,0.13366 -36.185395,2.31324 -50.183269,-11.53351 -15.700616,-15.52984 -15.701984,-43.79073 0.3999,-59.03962 14.175192,-13.42392 32.0993,-10.07134 49.783369,-9.8804 z"
       id="path16"
       style="stroke-width:2.72788" />
    <path
       fill="#555208"
       d="m 89.866409,657.41424 h 44.267851 l 0.0218,73.66654 c 0.008,12.47188 0.37917,25.04199 -0.0218,37.50297 H 89.866409 Z"
       id="path17"
       style="stroke-width:2.72788" />
    <path
       fill="#dda15e"
       d="m 89.866409,768.58375 h 44.267851 c 18.04768,0.40918 36.45818,-1.19483 50.04578,13.15386 14.56145,15.3771 14.29139,41.4775 -1.25755,56.07441 -14.00224,13.14568 -31.07881,11.03702 -48.78823,10.60328 H 89.866409 c -18.39877,-0.42828 -34.017817,3.3553 -48.763137,-10.74786 -16.527711,-15.81082 -16.8616,-41.94124 -0.572311,-58.06303 13.799286,-13.6558 31.645658,-11.12978 49.335448,-11.02066 z"
       id="path18"
       style="stroke-width:2.72788" />
    <path
       fill="#fefefe"
       d="m 747.41741,833.36829 -328.11822,0.0137 c -11.47622,0 -46.09581,3.19164 -55.3106,-3.41532 -14.97882,-10.73695 -6.16775,-31.88897 10.12045,-34.62504 l 314.94526,-0.0137 c 15.47528,0.002 31.07606,-0.40373 46.53771,0.22914 38.16857,1.55764 33.74941,32.3418 11.8254,37.81122 z"
       id="path19"
       style="stroke-width:2.72788" />
    <path
       fill="#555208"
       d="m 89.866409,848.4153 h 44.267851 c 1.57126,3.11253 -1.91498,103.50687 2.26414,123.42863 6.0259,28.73827 34.01401,40.78457 34.7478,47.88257 -73.87659,-1.5768 -81.272159,-23.78443 -81.248425,-92.8463 z"
       id="path20"
       style="stroke-width:2.72788" />
    <path
       fill="#fefefe"
       d="m 582.5522,914.67565 -134.56384,0.0736 c -5.63036,0.005 -11.73264,0.4501 -17.28934,-0.39826 -20.22181,-3.09343 -19.39526,-31.95717 -0.2155,-36.17449 9.68126,-2.12775 21.3757,-1.00933 31.31339,-1.00933 l 51.37427,0.03 100.74624,-0.0327 c 18.9097,0 64.58542,-8.49736 64.31262,19.45256 -0.22095,22.47777 -28.68916,18.10496 -43.60524,18.10224 z"
       id="path21"
       style="stroke-width:2.72788" />
  </g>
</svg>
